<?xml version="1.0" encoding="UTF-8"?>
<svg version="1.1" xmlns="http://www.w3.org/2000/svg" width="512" height="512">
<path d="M0 0 C1.01790619 0.00215515 2.03581238 0.0043103 3.08456421 0.00653076 C17.69363523 0.05620146 32.02575853 0.30709809 46.375 3.3125 C47.34985352 3.51117676 48.32470703 3.70985352 49.32910156 3.91455078 C97.7109774 14.03517194 141.69928269 35.9516877 177.375 70.3125 C178.3640332 71.26068604 178.3640332 71.26068604 179.37304688 72.22802734 C188.86130305 81.37247479 197.6012044 90.66984009 205.375 101.3125 C206.23306152 102.46355017 207.09113451 103.61459177 207.94921875 104.765625 C213.98736829 112.95680614 219.34595521 121.47054105 224.375 130.3125 C224.73948242 130.94430176 225.10396484 131.57610352 225.47949219 132.22705078 C247.08534998 169.97532572 256.85198095 212.74189997 256.6875 255.9375 C256.68534485 256.95540619 256.6831897 257.97331238 256.68096924 259.02206421 C256.63129854 273.63113523 256.38040191 287.96325853 253.375 302.3125 C253.07698486 303.77478027 253.07698486 303.77478027 252.77294922 305.26660156 C242.65232806 353.6484774 220.7358123 397.63678269 186.375 433.3125 C185.74287598 433.97185547 185.11075195 434.63121094 184.45947266 435.31054688 C175.31502521 444.79880305 166.01765991 453.5387044 155.375 461.3125 C154.22394983 462.17056152 153.07290823 463.02863451 151.921875 463.88671875 C143.73224019 469.92427396 135.22961724 475.30707302 126.375 480.3125 C125.66778809 480.7146875 124.96057617 481.116875 124.23193359 481.53125 C101.09654164 494.5566741 75.92537591 503.30551461 49.9375 508.625 C49.21860596 508.77235596 48.49971191 508.91971191 47.7590332 509.0715332 C33.08339502 511.86090125 18.55831162 512.66142619 3.64770508 512.62817383 C0.70811513 512.6250221 -2.2304558 512.64854926 -5.16992188 512.67382812 C-18.54306192 512.71848737 -31.43916711 511.51301542 -44.625 509.3125 C-46.33055054 509.03031616 -46.33055054 509.03031616 -48.07055664 508.74243164 C-91.33802759 500.97044532 -132.38793216 480.98345309 -165.625 452.3125 C-166.37007813 451.67828125 -167.11515625 451.0440625 -167.8828125 450.390625 C-181.38779833 438.57948485 -194.05918743 425.82889772 -204.625 411.3125 C-205.48149066 410.16255169 -206.33826433 409.01281411 -207.1953125 407.86328125 C-213.23534209 399.67315742 -218.61867614 391.16870382 -223.625 382.3125 C-224.0271875 381.60528809 -224.429375 380.89807617 -224.84375 380.16943359 C-237.8691741 357.03404164 -246.61801461 331.86287591 -251.9375 305.875 C-252.08485596 305.15610596 -252.23221191 304.43721191 -252.3840332 303.6965332 C-255.35789088 288.05024391 -255.99800362 272.57681954 -255.9375 256.6875 C-255.93534485 255.66959381 -255.9331897 254.65168762 -255.93096924 253.60293579 C-255.88129854 238.99386477 -255.63040191 224.66174147 -252.625 210.3125 C-252.42632324 209.33764648 -252.22764648 208.36279297 -252.02294922 207.35839844 C-241.90232806 158.9765226 -219.9858123 114.98821731 -185.625 79.3125 C-184.99287598 78.65314453 -184.36075195 77.99378906 -183.70947266 77.31445312 C-174.56502521 67.82619695 -165.26765991 59.0862956 -154.625 51.3125 C-153.47394983 50.45443848 -152.32290823 49.59636549 -151.171875 48.73828125 C-142.98224019 42.70072604 -134.47961724 37.31792698 -125.625 32.3125 C-124.91778809 31.9103125 -124.21057617 31.508125 -123.48193359 31.09375 C-100.34654164 18.0683259 -75.17537591 9.31948539 -49.1875 4 C-48.46860596 3.85264404 -47.74971191 3.70528809 -47.0090332 3.5534668 C-31.36274391 0.57960912 -15.88931954 -0.06050362 0 0 Z " fill="#4CAF50" transform="translate(255.625,-0.3125)"/>
<path d="M0 0 C1.03882004 -0.0060911 2.07764007 -0.01218221 3.1479395 -0.01845789 C6.62228238 -0.03508148 10.09625851 -0.03031281 13.57063293 -0.0255127 C16.06448243 -0.0328535 18.55832852 -0.04143976 21.0521698 -0.05117798 C27.11994076 -0.07109651 33.18756805 -0.07677441 39.25535896 -0.07499009 C44.19074173 -0.07368068 49.12609476 -0.07749577 54.06147194 -0.08491516 C55.48503488 -0.08701445 56.90859782 -0.08911205 58.33216077 -0.09120798 C59.0408034 -0.09225151 59.74944603 -0.09329504 60.47956268 -0.09437019 C73.87446668 -0.11326201 87.2693159 -0.11222601 100.6642277 -0.10540086 C112.90012995 -0.09982984 125.13582254 -0.1206338 137.37167581 -0.15376133 C149.95127143 -0.1875536 162.53076678 -0.20265954 175.1104086 -0.1980443 C182.16648911 -0.19580472 189.222376 -0.20096712 196.27841759 -0.22593689 C202.91791285 -0.24923328 209.5570463 -0.24630006 216.19657516 -0.22600937 C218.62811815 -0.22260447 221.05969061 -0.22766577 223.49119377 -0.24199295 C247.23916133 -0.3722234 247.23916133 -0.3722234 256.55818176 5.39440918 C257.15722919 5.76261024 257.75627661 6.13081131 258.37347698 6.51016998 C264.55524719 11.00564 269.34917751 19.16375856 271.55818176 26.39440918 C271.98073779 29.86784293 271.96773785 33.30919372 271.94586182 36.80499268 C271.95394012 38.35815575 271.95394012 38.35815575 271.96218163 39.94269586 C271.97646673 43.40556303 271.96935586 46.86804823 271.9622345 50.33093262 C271.96793785 52.81655179 271.97490197 55.30216834 271.98303223 57.78778076 C271.99912078 63.83516961 272.00106276 69.88240893 271.99581932 75.92980453 C271.99177291 80.84803235 271.99322678 85.76622951 271.99856758 90.68445587 C271.999316 91.38527325 272.00006443 92.08609062 272.00083553 92.80814488 C272.00236706 94.23202911 272.00390541 95.65591333 272.00545049 97.07979754 C272.01917151 110.42650938 272.0137413 123.77316258 272.00226528 137.11987308 C271.99233963 149.31439069 272.00526267 161.50875643 272.02919947 173.70325062 C272.05361928 186.23876868 272.06319089 198.7742161 272.05654675 211.30975747 C272.0530601 218.34174022 272.05524946 225.37360628 272.07279778 232.40557098 C272.08910288 239.02122898 272.08429323 245.636645 272.06549263 252.25231171 C272.06181085 254.67620794 272.06490314 257.10012568 272.07537842 259.52400208 C272.08861797 262.84162976 272.07701336 266.15830374 272.05938721 269.47589111 C272.06899221 270.42737589 272.07859722 271.37886066 272.08849329 272.3591783 C271.97861249 282.46208109 268.75961001 292.11314248 261.55818176 299.39440918 C253.01434686 306.36896828 244.84989983 308.84803465 233.99610901 308.79554749 C232.95643455 308.80234415 231.91676009 308.80914082 230.84558034 308.81614345 C227.37435259 308.83507906 223.90347877 308.83268091 220.4322052 308.8302002 C217.93820748 308.83917999 215.44421392 308.84938874 212.95022583 308.86073303 C206.88594044 308.88446624 200.8217933 308.8938948 194.75747433 308.89557017 C189.82497506 308.89699858 184.89250452 308.90317744 179.96001434 308.91267204 C165.95698316 308.93907563 151.95402079 308.95293275 137.95096454 308.95068062 C136.81995259 308.95050082 136.81995259 308.95050082 135.66609192 308.95031738 C134.91115689 308.95019474 134.15622186 308.9500721 133.37841001 308.94994574 C121.1490049 308.94872689 108.91987713 308.977426 96.6905522 309.01973248 C84.11544327 309.06288981 71.54046941 309.08353941 58.96528459 309.08095115 C51.91253071 309.07995748 44.86006759 309.08809936 37.80738068 309.12048531 C31.17193879 309.15076144 24.53700428 309.14972757 17.90149498 309.12793541 C15.47155802 309.12480488 13.04158253 309.1318451 10.6117115 309.15001678 C-4.94488278 309.25878518 -15.14728881 308.67463881 -27.44181824 298.39440918 C-29.13713074 296.31628418 -29.13713074 296.31628418 -30.56681824 294.14440918 C-31.04377136 293.43800293 -31.52072449 292.73159668 -32.01213074 292.00378418 C-35.95767922 284.8026192 -36.88207917 278.92248359 -36.84295654 270.83233643 C-36.84975321 269.79266196 -36.85654988 268.7529875 -36.86355251 267.68180776 C-36.88248812 264.21058 -36.88008996 260.73970619 -36.87760925 257.26843262 C-36.88658905 254.77443489 -36.8967978 252.28044134 -36.90814209 249.78645325 C-36.9318753 243.72216785 -36.94130386 237.65802072 -36.94297922 231.59370175 C-36.94440764 226.66120248 -36.95058649 221.72873194 -36.9600811 216.79624176 C-36.98648468 202.79321058 -37.00034181 188.79024821 -36.99808968 174.78719196 C-36.99796981 174.03318399 -36.99784994 173.27917603 -36.99772644 172.50231934 C-36.9976038 171.74738431 -36.99748116 170.99244928 -36.9973548 170.21463743 C-36.99613595 157.98523232 -37.02483506 145.75610454 -37.06714154 133.52677962 C-37.11029887 120.95167069 -37.13094847 108.37669683 -37.12836021 95.801512 C-37.12736654 88.74875813 -37.13550842 81.696295 -37.16789436 74.64360809 C-37.19817049 68.00816621 -37.19713663 61.3732317 -37.17534447 54.7377224 C-37.17221394 52.30778544 -37.17925416 49.87780995 -37.19742584 47.44793892 C-37.30615144 31.89746641 -36.72712228 21.68101638 -26.44181824 9.39440918 C-24.32853699 7.69909668 -24.32853699 7.69909668 -22.12931824 6.26940918 C-21.41131042 5.79245605 -20.69330261 5.31550293 -19.95353699 4.82409668 C-13.00030384 0.86626879 -7.93777654 -0.04388871 0 0 Z " fill="#4CAF50" transform="translate(138.4418182373047,101.6055908203125)"/>
<path d="M0 0 C1.03882004 -0.0060911 2.07764007 -0.01218221 3.1479395 -0.01845789 C6.62228238 -0.03508148 10.09625851 -0.03031281 13.57063293 -0.0255127 C16.06448243 -0.0328535 18.55832852 -0.04143976 21.0521698 -0.05117798 C27.11994076 -0.07109651 33.18756805 -0.07677441 39.25535896 -0.07499009 C44.19074173 -0.07368068 49.12609476 -0.07749577 54.06147194 -0.08491516 C55.48503488 -0.08701445 56.90859782 -0.08911205 58.33216077 -0.09120798 C59.0408034 -0.09225151 59.74944603 -0.09329504 60.47956268 -0.09437019 C73.87446668 -0.11326201 87.2693159 -0.11222601 100.6642277 -0.10540086 C112.90012995 -0.09982984 125.13582254 -0.1206338 137.37167581 -0.15376133 C149.95127143 -0.1875536 162.53076678 -0.20265954 175.1104086 -0.1980443 C182.16648911 -0.19580472 189.222376 -0.20096712 196.27841759 -0.22593689 C202.91791285 -0.24923328 209.5570463 -0.24630006 216.19657516 -0.22600937 C218.62811815 -0.22260447 221.05969061 -0.22766577 223.49119377 -0.24199295 C247.23916133 -0.3722234 247.23916133 -0.3722234 256.55818176 5.39440918 C257.15722919 5.76261024 257.75627661 6.13081131 258.37347698 6.51016998 C264.55524719 11.00564 269.34917751 19.16375856 271.55818176 26.39440918 C271.98073779 29.86784293 271.96773785 33.30919372 271.94586182 36.80499268 C271.95394012 38.35815575 271.95394012 38.35815575 271.96218163 39.94269586 C271.97646673 43.40556303 271.96935586 46.86804823 271.9622345 50.33093262 C271.96793785 52.81655179 271.97490197 55.30216834 271.98303223 57.78778076 C271.99912078 63.83516961 272.00106276 69.88240893 271.99581932 75.92980453 C271.99177291 80.84803235 271.99322678 85.76622951 271.99856758 90.68445587 C271.999316 91.38527325 272.00006443 92.08609062 272.00083553 92.80814488 C272.00236706 94.23202911 272.00390541 95.65591333 272.00545049 97.07979754 C272.01917151 110.42650938 272.0137413 123.77316258 272.00226528 137.11987308 C271.99233963 149.31439069 272.00526267 161.50875643 272.02919947 173.70325062 C272.05361928 186.23876868 272.06319089 198.7742161 272.05654675 211.30975747 C272.0530601 218.34174022 272.05524946 225.37360628 272.07279778 232.40557098 C272.08910288 239.02122898 272.08429323 245.636645 272.06549263 252.25231171 C272.06181085 254.67620794 272.06490314 257.10012568 272.07537842 259.52400208 C272.08861797 262.84162976 272.07701336 266.15830374 272.05938721 269.47589111 C272.06899221 270.42737589 272.07859722 271.37886066 272.08849329 272.3591783 C271.97861249 282.46208109 268.75961001 292.11314248 261.55818176 299.39440918 C253.01434686 306.36896828 244.84989983 308.84803465 233.99610901 308.79554749 C232.95643455 308.80234415 231.91676009 308.80914082 230.84558034 308.81614345 C227.37435259 308.83507906 223.90347877 308.83268091 220.4322052 308.8302002 C217.93820748 308.83917999 215.44421392 308.84938874 212.95022583 308.86073303 C206.88594044 308.88446624 200.8217933 308.8938948 194.75747433 308.89557017 C189.82497506 308.89699858 184.89250452 308.90317744 179.96001434 308.91267204 C165.95698316 308.93907563 151.95402079 308.95293275 137.95096454 308.95068062 C136.81995259 308.95050082 136.81995259 308.95050082 135.66609192 308.95031738 C134.91115689 308.95019474 134.15622186 308.9500721 133.37841001 308.94994574 C121.1490049 308.94872689 108.91987713 308.977426 96.6905522 309.01973248 C84.11544327 309.06288981 71.54046941 309.08353941 58.96528459 309.08095115 C51.91253071 309.07995748 44.86006759 309.08809936 37.80738068 309.12048531 C31.17193879 309.15076144 24.53700428 309.14972757 17.90149498 309.12793541 C15.47155802 309.12480488 13.04158253 309.1318451 10.6117115 309.15001678 C-4.94488278 309.25878518 -15.14728881 308.67463881 -27.44181824 298.39440918 C-29.13713074 296.31628418 -29.13713074 296.31628418 -30.56681824 294.14440918 C-31.04377136 293.43800293 -31.52072449 292.73159668 -32.01213074 292.00378418 C-35.95767922 284.8026192 -36.88207917 278.92248359 -36.84295654 270.83233643 C-36.84975321 269.79266196 -36.85654988 268.7529875 -36.86355251 267.68180776 C-36.88248812 264.21058 -36.88008996 260.73970619 -36.87760925 257.26843262 C-36.88658905 254.77443489 -36.8967978 252.28044134 -36.90814209 249.78645325 C-36.9318753 243.72216785 -36.94130386 237.65802072 -36.94297922 231.59370175 C-36.94440764 226.66120248 -36.95058649 221.72873194 -36.9600811 216.79624176 C-36.98648468 202.79321058 -37.00034181 188.79024821 -36.99808968 174.78719196 C-36.99796981 174.03318399 -36.99784994 173.27917603 -36.99772644 172.50231934 C-36.9976038 171.74738431 -36.99748116 170.99244928 -36.9973548 170.21463743 C-36.99613595 157.98523232 -37.02483506 145.75610454 -37.06714154 133.52677962 C-37.11029887 120.95167069 -37.13094847 108.37669683 -37.12836021 95.801512 C-37.12736654 88.74875813 -37.13550842 81.696295 -37.16789436 74.64360809 C-37.19817049 68.00816621 -37.19713663 61.3732317 -37.17534447 54.7377224 C-37.17221394 52.30778544 -37.17925416 49.87780995 -37.19742584 47.44793892 C-37.30615144 31.89746641 -36.72712228 21.68101638 -26.44181824 9.39440918 C-24.32853699 7.69909668 -24.32853699 7.69909668 -22.12931824 6.26940918 C-21.41131042 5.79245605 -20.69330261 5.31550293 -19.95353699 4.82409668 C-13.00030384 0.86626879 -7.93777654 -0.04388871 0 0 Z M-23.44181824 18.39440918 C-26.42526851 23.17337055 -28.5625378 27.95533426 -28.57603931 33.64275551 C-28.58049716 34.51402726 -28.584955 35.38529901 -28.58954793 36.28297293 C-28.58936357 37.2408324 -28.58917921 38.19869188 -28.58898926 39.18557739 C-28.59266595 40.20267866 -28.59634263 41.21977994 -28.60013074 42.26770246 C-28.61118609 45.6922673 -28.61501457 49.11680181 -28.61882019 52.54138184 C-28.62508347 54.99024553 -28.63173015 57.43910828 -28.63873291 59.88796997 C-28.65797409 67.24908046 -28.66856363 74.6101829 -28.6774607 81.97131115 C-28.68184477 85.43890698 -28.68721132 88.90650129 -28.69244957 92.37409592 C-28.70946246 103.903511 -28.72395578 115.43292514 -28.73119831 126.96235085 C-28.73310817 129.95418931 -28.73502851 132.94602777 -28.73698425 135.93786621 C-28.73746799 136.68146261 -28.73795173 137.425059 -28.73845013 138.19118862 C-28.74674722 150.23210421 -28.77207839 162.27292036 -28.80456493 174.31379254 C-28.83765587 186.67965867 -28.85564896 199.04547431 -28.85884255 211.41138494 C-28.86100591 218.35283726 -28.8697288 225.29414462 -28.89530373 232.23555374 C-28.91931421 238.7674097 -28.92282361 245.29905196 -28.91254234 251.83095932 C-28.9120465 254.22667559 -28.91838124 256.62240462 -28.93209839 259.01808167 C-28.94979759 262.29281314 -28.94271994 265.5666068 -28.92956543 268.84133911 C-28.94053468 269.78581425 -28.95150392 270.73028939 -28.96280557 271.703385 C-28.87865379 280.40128552 -26.0372336 287.44132643 -20.15666199 293.89050293 C-15.47085735 297.99992157 -9.41108116 300.51387011 -3.19347191 300.52863026 C-2.32220016 300.5330881 -1.45092841 300.53754594 -0.55325449 300.54213887 C0.88353472 300.54186233 0.88353472 300.54186233 2.34934998 300.5415802 C3.87500188 300.54709523 3.87500188 300.54709523 5.43147504 300.55272168 C8.85603988 300.56377703 12.28057439 300.56760551 15.70515442 300.57141113 C18.15401812 300.57767441 20.60288086 300.58432109 23.05174255 300.59132385 C30.41285304 300.61056503 37.77395548 300.62115457 45.13508373 300.63005164 C48.60267957 300.63443571 52.07027387 300.63980226 55.5378685 300.64504051 C67.06728358 300.6620534 78.59669772 300.67654672 90.12612343 300.68378925 C93.1179619 300.68569911 96.10980036 300.68761945 99.10163879 300.6895752 C100.21703339 300.69030081 100.21703339 300.69030081 101.3549612 300.69104107 C113.3958768 300.69933816 125.43669294 300.72466933 137.47756512 300.75715587 C149.84343126 300.79024682 162.20924689 300.8082399 174.57515752 300.81143349 C181.51660984 300.81359685 188.4579172 300.82231974 195.39932632 300.84789467 C201.93118229 300.87190515 208.46282454 300.87541455 214.9947319 300.86513329 C217.39044817 300.86463744 219.7861772 300.87097219 222.18185425 300.88468933 C225.45658572 300.90238853 228.73037939 300.89531088 232.00511169 300.88215637 C232.94958684 300.89312562 233.89406198 300.90409486 234.86715758 300.91539651 C243.32594106 300.83355817 250.80524726 298.12949688 257.0010767 292.21621513 C265.93263194 281.76633548 264.2579474 268.22902729 264.18928528 255.3392334 C264.194428 252.88918541 264.20171193 250.43914113 264.21096802 247.98910522 C264.22752776 242.04447447 264.22088011 236.10014491 264.20287979 230.15554367 C264.18881343 225.32224037 264.18496962 220.48902631 264.18832207 215.6557045 C264.18879951 214.96595308 264.18927695 214.27620167 264.18976886 213.5655487 C264.19079526 212.16404713 264.19185062 210.76254559 264.19293462 209.36104406 C264.20148718 196.98977573 264.1848724 184.61866621 264.15510559 172.24743652 C264.12625912 160.25843642 264.11919242 148.26966495 264.13459778 136.28063965 C264.15137728 123.20441484 264.15537733 110.1282984 264.13788742 97.05207074 C264.13604315 95.65654128 264.13420842 94.26101181 264.13238335 92.86548233 C264.13147126 92.17896604 264.13055917 91.49244974 264.12961944 90.78512993 C264.12402586 85.95964879 264.12731007 81.13422077 264.1339283 76.30874252 C264.14248877 69.80956395 264.12944301 63.31064003 264.10207939 56.81151199 C264.09520198 54.42870815 264.09509064 52.04587356 264.10229492 49.66307068 C264.11100613 46.40623089 264.09500408 43.15040171 264.07284546 39.89364624 C264.08520661 38.48511896 264.08520661 38.48511896 264.09781748 37.04813659 C263.98993753 28.43561452 261.15805356 21.30788679 255.34333801 14.89831543 C252.1464035 12.2050555 248.43825819 10.83779761 244.55818176 9.39440918 C243.89818176 9.06440918 243.23818176 8.73440918 242.55818176 8.39440918 C241.18570931 8.29838994 239.80870654 8.26345256 238.43288326 8.2601881 C237.56360256 8.25573026 236.69432186 8.25127241 235.79869932 8.24667948 C234.83792701 8.24686385 233.87715469 8.24704821 232.88726807 8.24723816 C231.87102122 8.24356147 230.85477437 8.23988478 229.80773216 8.23609668 C226.38006126 8.22502596 222.95242063 8.22121024 219.5247345 8.21740723 C217.0760183 8.21114505 214.62730306 8.20449847 212.17858887 8.19749451 C204.81261128 8.17823977 197.44664174 8.16766103 190.08064637 8.15876672 C186.61155409 8.15438435 183.14246334 8.14901729 179.67337227 8.14377785 C168.13970856 8.12676202 156.60604581 8.11226916 145.07237148 8.10502911 C142.07830237 8.10311921 139.08423327 8.10119888 136.09016418 8.09924316 C135.34600229 8.09875942 134.60184039 8.09827568 133.83512814 8.09777728 C121.78768244 8.08948197 109.7403362 8.06415512 97.69293391 8.03166249 C85.32257939 7.99857115 72.95227535 7.98057835 60.58187634 7.97738487 C53.63705569 7.97522134 46.69237994 7.9664962 39.74760246 7.94092369 C33.21165591 7.91691237 26.67592293 7.91340409 20.139925 7.92368507 C17.74259703 7.92418092 15.34525631 7.91784608 12.94796753 7.90412903 C9.67099323 7.88642985 6.39495609 7.89350751 3.11798096 7.90666199 C2.1728237 7.89569274 1.22766643 7.8847235 0.25386804 7.87342185 C-9.05212144 7.9633943 -17.22203562 11.30224147 -23.44181824 18.39440918 Z " fill="#FDFDFD" transform="translate(138.4418182373047,101.6055908203125)"/>
<path d="M0 0 C2.5 0.25 2.5 0.25 4.5 2.25 C4.68834927 5.23302129 4.75165839 8.12254254 4.72705078 11.10595703 C4.72734283 12.02308472 4.72763489 12.9402124 4.72793579 13.88513184 C4.72653893 16.92612059 4.71096101 19.96686638 4.6953125 23.0078125 C4.69158364 25.11245591 4.68873607 27.21710106 4.68673706 29.32174683 C4.67909064 34.86859914 4.6594335 40.41534717 4.6373291 45.9621582 C4.61689237 51.61928903 4.60774 57.27643667 4.59765625 62.93359375 C4.57618856 74.03910839 4.54204048 85.14454553 4.5 96.25 C5.65150543 95.90873077 6.80301086 95.56746155 7.9894104 95.21585083 C9.52368555 94.76249727 11.05797806 94.30920246 12.59228516 93.85595703 C13.3484462 93.63168533 14.10460724 93.40741364 14.88368225 93.17634583 C21.17402047 91.32017697 27.50078171 89.66895815 33.875 88.125 C35.84143973 87.64443018 37.80758778 87.16266519 39.7734375 86.6796875 C40.71413086 86.44862305 41.65482422 86.21755859 42.62402344 85.97949219 C46.5369674 84.98697295 50.42275683 83.90367985 54.30712891 82.80517578 C56.5 82.25 56.5 82.25 58.5 82.25 C58.49555878 81.25219513 58.49111755 80.25439026 58.48654175 79.22634888 C58.44605625 69.83808586 58.4160448 60.44984048 58.39637566 51.06151009 C58.38592374 46.23449195 58.37173896 41.40754409 58.34912109 36.58056641 C58.32744278 31.92514222 58.31544199 27.26978578 58.31024551 22.61431503 C58.30654072 20.83524381 58.29930652 19.05617644 58.28853989 17.27713394 C58.27409146 14.79160706 58.27201925 12.30636267 58.27294922 9.82080078 C58.26575867 9.07993225 58.25856812 8.33906372 58.25115967 7.57574463 C58.27189568 2.47810432 58.27189568 2.47810432 60.5 0.25 C63 0 63 0 65.5 0.25 C67.9530831 2.7030831 67.73469745 4.03839442 67.74884033 7.38536072 C67.7380545 8.45458519 67.7380545 8.45458519 67.72705078 9.54541016 C67.72734283 10.29672714 67.72763489 11.04804413 67.72793579 11.8221283 C67.72653987 14.31122292 67.71096658 16.80002003 67.6953125 19.2890625 C67.6915833 21.01256141 67.68873589 22.73606243 67.68673706 24.45956421 C67.6790933 29.00030347 67.65943848 33.5409152 67.6373291 38.081604 C67.61688664 42.71323928 67.60773877 47.34489513 67.59765625 51.9765625 C67.57619325 61.06776443 67.54204839 70.15887162 67.5 79.25 C71.09695549 78.32001853 74.69307065 77.38682502 78.2890625 76.453125 C79.79158569 76.06471436 79.79158569 76.06471436 81.32446289 75.66845703 C90.57310464 73.26418235 99.75145199 70.63945137 108.91552734 67.93261719 C112.75036355 66.91975095 116.62447906 66.09156715 120.5 65.25 C120.51213028 64.07275864 120.51213028 64.07275864 120.52450562 62.87173462 C120.60236372 55.48470432 120.68962726 48.09787407 120.78752708 40.71108437 C120.83752784 36.91322119 120.88385725 33.11538634 120.921875 29.31738281 C120.95868049 25.65385046 121.00502693 21.990553 121.05806351 18.32722092 C121.07663279 16.92779017 121.09173136 15.52830902 121.10334396 14.12880325 C121.12016243 12.1725205 121.15033353 10.21636619 121.18115234 8.26025391 C121.19447601 7.1455069 121.20779968 6.03075989 121.2215271 4.88223267 C121.5 2.25 121.5 2.25 123.5 0.25 C126 0 126 0 128.5 0.25 C130.5 2.25 130.5 2.25 130.74050903 4.76834106 C130.73606781 5.8297934 130.73162659 6.89124573 130.72705078 7.98486328 C130.72682419 9.78650436 130.72682419 9.78650436 130.72659302 11.62454224 C130.71627045 12.92664642 130.70594788 14.22875061 130.6953125 15.5703125 C130.69158276 16.91266673 130.68873561 18.25502367 130.68673706 19.59738159 C130.67909744 23.132014 130.6594463 26.66648228 130.6373291 30.2010498 C130.61687765 33.8071877 130.60773685 37.41335209 130.59765625 41.01953125 C130.5762006 48.09642135 130.54206079 55.17319997 130.5 62.25 C146.0344175 58.433752 146.0344175 58.433752 161.4375 54.125 C169.06277121 51.85885514 176.73546047 49.9812053 184.5 48.25 C184.49555878 47.67814972 184.49111755 47.10629944 184.48654175 46.51712036 C184.44239049 40.58028658 184.41216788 34.64349922 184.39013672 28.70654297 C184.38006175 26.48907579 184.36640141 24.27162195 184.34912109 22.05419922 C184.32493837 18.87203688 184.31353203 15.69004976 184.3046875 12.5078125 C184.29436493 11.51194122 184.28404236 10.51606995 184.27340698 9.49002075 C184.27325592 8.56921722 184.27310486 7.6484137 184.27294922 6.69970703 C184.268508 5.8869632 184.26406677 5.07421936 184.25949097 4.23684692 C184.5 2.25 184.5 2.25 186.5 0.25 C189 0 189 0 191.5 0.25 C193.5 2.25 193.5 2.25 193.74050903 4.12295532 C193.73606781 4.88240448 193.73162659 5.64185364 193.72705078 6.42431641 C193.72682419 7.71542831 193.72682419 7.71542831 193.72659302 9.03262329 C193.71627045 9.96287323 193.70594788 10.89312317 193.6953125 11.8515625 C193.6924826 12.80316254 193.68965271 13.75476257 193.68673706 14.73519897 C193.67551989 17.78192592 193.65041263 20.82836154 193.625 23.875 C193.61497218 25.93749576 193.60584599 27.99999612 193.59765625 30.0625 C193.57557554 35.12511267 193.5410353 40.1875069 193.5 45.25 C196.20918332 44.62851697 198.91731127 44.00293439 201.625 43.375 C202.76582031 43.11396484 202.76582031 43.11396484 203.9296875 42.84765625 C207.29316715 42.06477737 210.54329599 41.23543217 213.8203125 40.1328125 C217.18083141 39.02570277 219.9857064 38.97966972 223.5 39.25 C224.16 39.91 224.82 40.57 225.5 41.25 C225.125 43.875 225.125 43.875 224.5 46.25 C199.29841897 54.25 199.29841897 54.25 193.5 54.25 C193.50184359 54.9799864 193.50368717 55.7099728 193.50558662 56.46208 C193.54970936 74.20466876 193.5828291 91.9472466 193.60362434 109.68987846 C193.61394744 118.26999758 193.62802745 126.85008013 193.65087891 135.43017578 C193.67078122 142.90649855 193.68370891 150.38279485 193.68817699 157.85914338 C193.69078974 161.81970186 193.69695215 165.78018458 193.71146011 169.74071884 C193.72499421 173.46543412 193.72923115 177.19004214 193.72621536 180.91477966 C193.7267674 182.28461921 193.73076967 183.6544622 193.73841095 185.02428055 C193.74830639 186.88903485 193.74479014 188.75384618 193.74050903 190.61862183 C193.74235262 191.66393507 193.74419621 192.70924831 193.74609566 193.78623772 C193.5 196.25 193.5 196.25 191.5 198.25 C189 198.5 189 198.5 186.5 198.25 C184.5 196.25 184.5 196.25 184.25390434 193.83308983 C184.25574793 192.80989962 184.25759151 191.7867094 184.25949097 190.73251343 C184.25536697 188.97403831 184.25536697 188.97403831 184.25115967 187.18003845 C184.2619455 185.2411953 184.2619455 185.2411953 184.27294922 183.26318359 C184.27351314 181.89344796 184.27319715 180.52371172 184.27206421 179.15397644 C184.27148893 175.42895442 184.28327138 171.70406046 184.29721212 167.97906828 C184.30969046 164.088642 184.31088769 160.19821298 184.31326294 156.30776978 C184.31948625 148.93774518 184.33590854 141.56777972 184.35596192 134.19778121 C184.37829449 125.80854362 184.38930769 117.41930326 184.39935279 109.03004336 C184.42027406 91.76999467 184.45546651 74.51000358 184.5 57.25 C183.33671173 57.59421494 182.17342346 57.93842987 180.97488403 58.29307556 C179.4313485 58.74873194 177.88779918 59.20434166 176.34423828 59.65991211 C175.57956741 59.88631126 174.81489655 60.11271042 174.02705383 60.34597015 C168.50734635 61.9736523 162.97079599 63.46780636 157.375 64.8125 C149.97735382 66.62256236 142.61775145 68.53547601 135.2734375 70.55078125 C132.5 71.25 132.5 71.25 130.5 71.25 C130.50184359 71.89237295 130.50368717 72.5347459 130.50558662 73.1965847 C130.54971323 88.81114945 130.58283098 104.42569259 130.60362434 120.04030418 C130.61394656 127.59134533 130.62802488 135.14234491 130.65087891 142.69335938 C130.67078393 149.27314106 130.68370956 155.85289266 130.68817699 162.43270361 C130.69078929 165.91819014 130.69694878 169.40359055 130.71146011 172.88904953 C130.72751037 176.77549632 130.72798155 180.66185809 130.72705078 184.54833984 C130.73424133 185.70999161 130.74143188 186.87164337 130.74884033 188.0684967 C130.746091 189.12301529 130.74334167 190.17753387 130.74050903 191.26400757 C130.74235262 192.18395697 130.74419621 193.10390636 130.74609566 194.05173302 C130.5 196.25 130.5 196.25 128.5 198.25 C126 198.5 126 198.5 123.5 198.25 C121.5 196.25 121.5 196.25 121.25390434 194.09858513 C121.25574793 193.20075876 121.25759151 192.3029324 121.25949097 191.37789917 C121.25536697 189.83398499 121.25536697 189.83398499 121.25115967 188.25888062 C121.2619455 186.55848129 121.2619455 186.55848129 121.27294922 184.82373047 C121.27265717 183.63350281 121.27236511 182.44327515 121.27206421 181.21697998 C121.27322085 177.94853958 121.28326842 174.68026925 121.29721212 171.41186285 C121.30969364 167.99790018 121.31088794 164.58393436 121.31326294 161.16995239 C121.31948531 154.70303099 121.33590633 148.236177 121.35596192 141.76928532 C121.37829741 134.40784073 121.38930842 127.04639296 121.39935279 119.68492293 C121.42027193 104.53991102 121.45546257 89.39496224 121.5 74.25 C120.34767883 74.59126923 119.19535767 74.93253845 118.00811768 75.28414917 C116.47320012 75.73749756 114.93826683 76.19079267 113.40332031 76.64404297 C112.64657013 76.86831467 111.88981995 77.09258636 111.11013794 77.32365417 C104.86096429 79.16711612 98.57906597 80.82731857 92.25 82.375 C90.81140625 82.73271484 90.81140625 82.73271484 89.34375 83.09765625 C84.11602987 84.39060842 78.87794933 85.63163967 73.62988281 86.83935547 C72.47675598 87.10489227 71.32362915 87.37042908 70.13555908 87.64401245 C69.26582458 87.84398834 68.39609009 88.04396423 67.5 88.25 C67.50184359 88.8047595 67.50368717 89.359519 67.50558662 89.9310894 C67.5497183 103.41762155 67.58270589 116.90414108 67.60362434 130.3907299 C67.6140792 136.91269488 67.62826937 143.4346079 67.65087891 149.95654297 C67.67254669 156.24589679 67.68455579 162.53520052 67.68975449 168.82458878 C67.69346117 171.22886062 67.70069897 173.6331296 67.71146011 176.03738022 C67.72589441 179.39461021 67.72798133 182.75163089 67.72705078 186.10888672 C67.73424133 187.11157593 67.74143188 188.11426514 67.74884033 189.14733887 C67.746091 190.05881683 67.74334167 190.9702948 67.74050903 191.90939331 C67.74235262 192.70397886 67.74419621 193.49856441 67.74609566 194.31722832 C67.5 196.25 67.5 196.25 65.5 198.25 C63 198.5 63 198.5 60.5 198.25 C58.5 196.25 58.5 196.25 58.25390434 194.36408043 C58.25666972 193.20538665 58.25666972 193.20538665 58.25949097 192.02328491 C58.25674164 191.13704941 58.25399231 190.2508139 58.25115967 189.33772278 C58.2619455 187.87576729 58.2619455 187.87576729 58.27294922 186.38427734 C58.27265717 185.35986038 58.27236511 184.33544342 58.27206421 183.27998352 C58.27346151 179.88188307 58.28904161 176.48399981 58.3046875 173.0859375 C58.3084162 170.73467122 58.31126385 168.38340339 58.31326294 166.03213501 C58.32091062 159.83426649 58.34056885 153.63649125 58.3626709 147.43865967 C58.38310491 141.11797345 58.39225942 134.79727221 58.40234375 128.4765625 C58.42381367 116.06766728 58.45796327 103.65884139 58.5 91.25 C57.89547312 91.42351392 57.29094624 91.59702784 56.66810036 91.77579975 C53.90476173 92.56848641 51.14110485 93.36005793 48.37744141 94.15161133 C46.95094017 94.56108379 46.95094017 94.56108379 45.49562073 94.97882843 C39.31504762 96.74795229 33.12674325 98.43666987 26.875 99.9375 C25.22892986 100.34017903 23.58309423 100.74381799 21.9375 101.1484375 C21.17824219 101.3350293 20.41898438 101.52162109 19.63671875 101.71386719 C15.87020527 102.65893844 12.13224854 103.70356942 8.3984375 104.76953125 C6.5 105.25 6.5 105.25 4.5 105.25 C4.50444122 106.38561371 4.50888245 107.52122742 4.51345825 108.69125366 C4.55393833 119.37453975 4.58395259 130.05781035 4.60362434 140.74115562 C4.61407763 146.23404503 4.62826493 151.7268727 4.65087891 157.21972656 C4.6725523 162.51705154 4.68455698 167.81431701 4.68975449 173.11168289 C4.69346016 175.13636843 4.70069604 177.16105059 4.71146011 179.18571091 C4.72590194 182.01369102 4.72798102 184.84142276 4.72705078 187.66943359 C4.73424133 188.51316025 4.74143188 189.3568869 4.74884033 190.22618103 C4.72810432 196.02189568 4.72810432 196.02189568 2.5 198.25 C0 198.5 0 198.5 -2.5 198.25 C-5.08303084 195.66696916 -4.73582174 193.93573289 -4.74884033 190.41656494 C-4.74164978 189.6008905 -4.73445923 188.78521606 -4.72705078 187.94482422 C-4.72734283 187.08621796 -4.72763489 186.22761169 -4.72793579 185.34298706 C-4.72653922 182.49678543 -4.71096273 179.65084356 -4.6953125 176.8046875 C-4.69158353 174.83456566 -4.68873601 172.86444198 -4.68673706 170.89431763 C-4.67909146 165.70256452 -4.65943504 160.51092286 -4.6373291 155.31921387 C-4.6168906 150.0240225 -4.60773962 144.72881317 -4.59765625 139.43359375 C-4.57619001 129.03901346 -4.54204292 118.64451599 -4.5 108.25 C-5.23114014 108.4672876 -5.96228027 108.6845752 -6.71557617 108.90844727 C-10.03622476 109.8881769 -13.36167816 110.85048542 -16.6875 111.8125 C-17.83798828 112.15474609 -18.98847656 112.49699219 -20.17382812 112.84960938 C-21.84155273 113.32817383 -21.84155273 113.32817383 -23.54296875 113.81640625 C-24.56414795 114.11490479 -25.58532715 114.41340332 -26.63745117 114.72094727 C-29.67731801 115.28277169 -31.56718259 115.18035185 -34.5 114.25 C-36.5 112.25 -36.5 112.25 -36.625 109.8125 C-35.5 107.25 -35.5 107.25 -32.0390625 105.7578125 C-27.33952846 104.12289531 -22.56380498 102.81318246 -17.75 101.5625 C-16.49509766 101.22508789 -16.49509766 101.22508789 -15.21484375 100.88085938 C-14.00248047 100.5627832 -14.00248047 100.5627832 -12.765625 100.23828125 C-12.04149414 100.04790283 -11.31736328 99.85752441 -10.57128906 99.66137695 C-8.5 99.25 -8.5 99.25 -4.5 99.25 C-4.50444122 98.03921783 -4.50888245 96.82843567 -4.51345825 95.58096313 C-4.5539359 84.19130102 -4.58395142 72.80165343 -4.60362434 61.41193581 C-4.61407824 55.55584347 -4.62826667 49.69980902 -4.65087891 43.84375 C-4.6725501 38.19629723 -4.68455651 32.54890028 -4.68975449 26.90140915 C-4.69346056 24.74275203 -4.70069719 22.5840981 -4.71146011 20.42546463 C-4.72589897 17.4106909 -4.72798114 14.39615019 -4.72705078 11.38134766 C-4.73424133 10.48151657 -4.74143188 9.58168549 -4.74884033 8.65458679 C-4.72136978 0.47213698 -4.72136978 0.47213698 0 0 Z " fill="#F4F9F4" transform="translate(161.5,156.75)"/>
</svg>
